<?xml version="1.0" encoding="utf-8"?>
<!-- Generator: Adobe Illustrator 18.0.0, SVG Export Plug-In . SVG Version: 6.00 Build 0)  -->
<!DOCTYPE svg PUBLIC "-//W3C//DTD SVG 1.1//EN" "http://www.w3.org/Graphics/SVG/1.1/DTD/svg11.dtd">
<svg version="1.1" id="Layer_1" xmlns="http://www.w3.org/2000/svg" xmlns:xlink="http://www.w3.org/1999/xlink" x="0px" y="0px"
	 viewBox="0 0 612 792" enable-background="new 0 0 612 792" xml:space="preserve">
<g>
	<g>
		<polygon fill="#F4F4F4" points="359.3,387.7 359.3,369.8 307.7,369.8 305.6,369.8 254.2,369.8 254.2,387.7 260.8,387.7 
			260.8,376.3 302,376.3 280.4,415.8 260.8,415.8 260.8,407.1 254.2,407.1 254.2,422.4 284.3,422.4 306.7,381.6 329.1,422.4 
			359.3,422.4 359.3,407.1 352.7,407.1 352.7,415.8 333,415.8 311.3,376.3 352.7,376.3 352.7,387.7 		"/>
		<path fill="#F4F4F4" d="M359.8,423h-31l-22.1-40.3L284.6,423h-31.1v-16.5h7.7v8.8H280l21-38.5h-39.8v11.3h-7.7v-19h106.2v19H352
			v-11.3h-39.8l21,38.5H352v-8.8h7.7L359.8,423L359.8,423z M329.4,421.9h29.3v-14.3h-5.5v8.8h-20.6l-22.3-40.6h42.8V387h5.5v-16.9
			H254.7V387h5.5v-11.3H303l-22.2,40.6h-20.6v-8.8h-5.5v14.3H284l22.7-41.5L329.4,421.9z"/>
	</g>
	<g>
		<rect x="303.4" y="399.3" fill="#F4F4F4" width="6.6" height="23.2"/>
		<path fill="#F4F4F4" d="M310.5,423h-7.6v-24.3h7.7L310.5,423L310.5,423z M304,421.9h5.5v-22.1H304V421.9z"/>
	</g>
</g>
</svg>
