<?xml version="1.0" encoding="utf-8"?>
<!-- Generator: Adobe Illustrator 18.0.0, SVG Export Plug-In . SVG Version: 6.00 Build 0)  -->
<!DOCTYPE svg PUBLIC "-//W3C//DTD SVG 1.1//EN" "http://www.w3.org/Graphics/SVG/1.1/DTD/svg11.dtd">
<svg version="1.1" id="Layer_1" xmlns="http://www.w3.org/2000/svg" xmlns:xlink="http://www.w3.org/1999/xlink" x="0px" y="0px"
	 viewBox="0 0 612 792" enable-background="new 0 0 612 792" xml:space="preserve">
<g>
	<g>
		<polygon fill="#F4F4F4" points="372.2,385.6 372.2,363.3 308,363.3 305.4,363.3 241.3,363.3 241.3,385.6 249.5,385.6 249.5,371.5 
			300.9,371.5 274,420.7 249.5,420.7 249.5,409.8 241.3,409.8 241.3,428.9 278.8,428.9 306.7,378 334.6,428.9 372.2,428.9 
			372.2,409.8 364,409.8 364,420.7 339.5,420.7 312.5,371.5 364,371.5 364,385.6 		"/>
		<path fill="#F4F4F4" d="M372.8,429.6h-38.6l-27.5-50.2l-27.5,50.2h-38.7v-20.5h9.6V420h23.4l26.2-47.9h-49.6v14.1h-9.6v-23.7
			h132.2v23.7h-9.6v-14.1h-49.6l26.2,47.9h23.4v-10.9h9.6L372.8,429.6L372.8,429.6z M335,428.2h36.5v-17.8h-6.8v10.9h-25.6
			l-27.8-50.6h53.3v14.1h6.8v-21H242v21h6.8v-14.1h53.3l-27.7,50.6h-25.6v-10.9H242v17.8h36.5l28.3-51.7L335,428.2z"/>
	</g>
	<g>
		<rect x="302.6" y="400.1" fill="#F4F4F4" width="8.2" height="28.9"/>
		<path fill="#F4F4F4" d="M311.5,429.6H302v-30.2h9.6V429.6z M303.3,428.3h6.8v-27.5h-6.8V428.3z"/>
	</g>
</g>
</svg>
